<svg width="112" height="20" viewBox="0 0 112 20" fill="none" xmlns="http://www.w3.org/2000/svg">
<path d="M8.32068 20C6.42253 20 5.04441 19.2497 4.10834 17.9043H3.84832V19.586H0V0.388098H3.84832V7.99482H4.10834C5.04441 6.67529 6.50053 5.92497 8.32068 5.92497C11.961 5.92497 14.6132 8.77102 14.6132 12.9625C14.6132 17.1798 11.987 20 8.32068 20ZM7.22859 16.74C9.25676 16.74 10.7389 15.11 10.7389 12.9625C10.7389 10.8409 9.28276 9.21087 7.22859 9.21087C5.17443 9.21087 3.6923 10.8409 3.6923 12.9625C3.6923 15.0841 5.17443 16.74 7.22859 16.74Z" fill="white"/>
<path d="M15.9049 19.586V6.33894H19.7012V8.15006H19.9872C20.5593 6.90815 21.8594 6.08021 23.2635 6.08021C23.8096 6.08021 24.3556 6.20957 24.7716 6.41656V9.8577C24.0176 9.52135 23.1335 9.3661 22.5875 9.3661C20.8973 9.3661 19.7532 10.7633 19.7532 12.8072V19.586H15.9049Z" fill="white"/>
<path d="M29.2307 19.9224C26.5005 19.9224 24.6284 18.4994 24.6284 16.119C24.6284 13.6352 26.7345 12.1087 30.9209 11.5912L33.7551 11.2549V10.7115C33.7551 9.44373 32.871 8.58991 31.3369 8.58991C29.9328 8.58991 28.9707 9.36611 28.9967 10.6856H25.2264C25.2264 7.78784 27.6446 5.92497 31.3889 5.92497C35.1852 5.92497 37.6034 7.83958 37.6034 10.8409V19.586H33.7551V17.9043H33.4951C32.663 19.2238 31.1289 19.9224 29.2307 19.9224ZM30.5048 17.4127C32.429 17.4127 33.7551 16.1708 33.7551 14.5149V13.5834L31.0249 13.9198C29.1267 14.1527 28.3987 14.903 28.3987 15.8085C28.3987 16.7917 29.1787 17.4127 30.5048 17.4127Z" fill="white"/>
<path d="M41.3373 4.50194C39.9852 4.50194 39.0231 3.5705 39.0231 2.25097C39.0231 0.957309 39.9852 0 41.3373 0C42.6894 0 43.6515 0.957309 43.6515 2.25097C43.6515 3.5705 42.6894 4.50194 41.3373 4.50194ZM39.4131 19.586V6.33894H43.2615V19.586H39.4131Z" fill="white"/>
<path d="M45.2589 19.586V6.33894H49.1072V8.20181H49.3672C50.3553 6.70116 51.6294 5.95084 53.2415 5.95084C56.2578 5.95084 58.2599 8.27943 58.2599 11.4618V19.586H54.4116V12.0052C54.4116 10.3752 53.4756 9.23674 51.9154 9.23674C50.3813 9.23674 49.1072 10.4528 49.1072 12.1345V19.586H45.2589Z" fill="white"/>
<path d="M65.3528 20C62.6746 20 60.9584 18.1113 60.9584 15.3169V9.13325H59.0863V6.33894H61.0624L61.8165 2.14748H64.8327L64.8067 6.33894H67.849V9.13325H64.8067V15.1617C64.8067 16.2743 65.4828 17.0246 66.5749 17.0246C66.9389 17.0246 67.511 16.947 67.953 16.8435V19.586C67.1989 19.8448 66.1068 20 65.3528 20Z" fill="white"/>
<path d="M75.7024 20C71.386 20 68.3438 17.1281 68.3438 12.859C68.3438 8.71927 71.386 5.92497 75.6764 5.92497C79.9147 5.92497 82.827 8.74515 82.827 12.9107C82.827 13.2471 82.827 13.7904 82.775 14.075H72.3221C72.6341 15.9379 73.9602 17.1539 75.8584 17.1539C77.3405 17.1539 78.4846 16.4295 79.0566 15.3428L82.3329 16.1708C81.5008 18.5511 78.9266 20 75.7024 20ZM72.2961 11.6947H78.9006C78.6666 10.0129 77.3665 8.77102 75.5724 8.77102C73.8302 8.77102 72.6081 9.93532 72.2961 11.6947Z" fill="white"/>
<path d="M90.8418 20C86.6035 20 83.6133 17.1539 83.6133 12.9625C83.6133 8.74515 86.5515 5.92497 90.8418 5.92497C94.4561 5.92497 97.2124 7.94308 97.6544 11.0737L94.0661 11.5395C93.7281 10.0906 92.376 9.0815 90.8939 9.0815C88.9437 9.0815 87.4616 10.6856 87.4616 12.9625C87.4616 15.2393 88.9177 16.8435 90.8678 16.8435C92.402 16.8435 93.7021 15.8344 94.0661 14.4114L97.6804 14.8512C97.1864 17.9819 94.4041 20 90.8418 20Z" fill="white"/>
<path d="M98.9729 19.586V0.388098H102.821V8.12419H103.081C104.095 6.67529 105.343 5.92497 106.956 5.92497C109.972 5.92497 112 8.25356 112 11.4101V19.586H108.152V11.9793C108.152 10.3493 107.19 9.21087 105.629 9.21087C104.095 9.21087 102.821 10.4269 102.821 12.1345V19.586H98.9729Z" fill="white"/>
</svg>
