<svg width="72" height="22" viewBox="0 0 72 22" fill="none" xmlns="http://www.w3.org/2000/svg">
<path d="M0 22V18.5014H4.77279V3.49857H0V0H14.3184V3.49857H9.54558V18.5014H14.3184V22H0Z" fill="white"/>
<path d="M18.7287 0H25.8879C28.8789 0 31.0955 0.945558 32.538 2.83668C33.9804 4.72779 34.7017 7.4489 34.7017 11C34.7017 14.5511 33.9804 17.2722 32.538 19.1633C31.0955 21.0544 28.8789 22 25.8879 22H18.7287V0ZM25.5697 18.2808C26.9909 18.2808 28.0304 17.829 28.6879 16.9255C29.3455 16.022 29.6743 14.7087 29.6743 12.9857V8.98281C29.6743 7.2808 29.3455 5.97803 28.6879 5.0745C28.0304 4.17096 26.9909 3.7192 25.5697 3.7192H23.4379V18.2808H25.5697Z" fill="white"/>
<path d="M42.1348 7.37536H41.7848V22H37.712V0H43.4393L48.4985 14.6246H48.8485V0H52.9213V22H47.1939L42.1348 7.37536Z" fill="white"/>
<path d="M61.2135 7.37536H60.8635V22H56.7907V0H62.5181L67.5772 14.6246H67.9272V0H72V22H66.2727L61.2135 7.37536Z" fill="white"/>
</svg>
