<svg width="102" height="18" viewBox="0 0 102 18" fill="none" xmlns="http://www.w3.org/2000/svg">
<path d="M3.87832 17.7391H0V0.260869H5.24867L9.30798 8.86957L10.9369 12.9652H11.2213L12.7985 8.86957L16.7285 0.260869H22.003V17.7391H18.1247V8.86957L18.254 6.13043H17.9696L16.9612 8.86957L13.3414 16.6957H8.63574L5.01597 8.86957L4.0076 6.13043H3.72319L3.87832 8.86957V17.7391Z" fill="white"/>
<path d="M28.2951 17.7391H23.9513L31.527 0.260869H37.0601L44.6875 17.7391H40.2403L38.6114 13.8783H29.9498L28.2951 17.7391ZM33.0783 6.54783L31.4494 10.3565H37.1118L35.4829 6.54783L34.4228 3.83478H34.1384L33.0783 6.54783Z" fill="white"/>
<path d="M50.5478 17.7391H46.6695V0.260869H50.5478V7.2H54.8657L59.468 0.260869H64.122L58.0976 8.86957L64.0444 17.7391H59.3904L54.9174 11.0087H50.5478V17.7391Z" fill="white"/>
<path d="M80.839 17.7391H66.179V0.260869H80.839V3.78261H70.0573V7.2H80.4512V10.6957H70.0573V14.2174H80.839V17.7391Z" fill="white"/>
<path d="M92.5886 18C86.8487 18 83.2806 14.4522 83.2806 9C83.2806 3.54783 86.8487 0 92.5886 0C98.4578 0 102 3.54783 102 9C102 14.4522 98.4578 18 92.5886 18ZM92.5886 14.2435C96.3894 14.2435 97.8631 12.887 97.8631 9C97.8631 5.11304 96.3894 3.75652 92.5886 3.75652C88.7878 3.75652 87.3916 5.11304 87.3916 9C87.3916 12.887 88.7878 14.2435 92.5886 14.2435Z" fill="white"/>
</svg>
