<svg width="82" height="22" viewBox="0 0 82 22" fill="none" xmlns="http://www.w3.org/2000/svg">
<path d="M10.9405 22H3.11974V20.4316H1.55987V18.8633H0V9.43164H1.55987V7.86328H3.11974V6.29492H10.9405V7.86328H12.5003V9.43164H14.0602V18.8633H12.5003V20.4316H10.9405V22ZM4.67961 18.8633H9.3699V17.2949H10.9405V11H9.3699V9.43164H4.67961V11H3.11974V17.2949H4.67961V18.8633Z" fill="white"/>
<path d="M20.2997 22H17.1799V6.29492H20.2997V7.86328H21.8595V6.29492H27.3298V7.86328H28.9003V9.43164H30.4602V22H27.3298V11H25.7699V9.43164H21.8595V11H20.2997V22Z" fill="white"/>
<path d="M44.5311 22H36.7104V20.4316H35.1505V18.8633H33.5906V9.43164H35.1505V7.86328H36.7104V6.29492H44.5311V7.86328H46.0909V9.43164H47.6508V14.9316H36.7104V17.2949H38.2702V18.8633H42.9605V17.2949H47.6508V18.8633H46.0909V20.4316H44.5311V22ZM36.7104 12.5791H44.5311V11H42.9605V9.43164H38.2702V11H36.7104V12.5791Z" fill="white"/>
<path d="M53.8903 22H50.7706V0H53.8903V7.86328H55.4502V6.29492H61.711V7.86328H63.2709V9.43164H64.8307V18.8633H63.2709V20.4316H61.711V22H55.4502V20.4316H53.8903V22ZM55.4502 18.8633H60.1405V17.2949H61.711V11H60.1405V9.43164H55.4502V11H53.8903V17.2949H55.4502V18.8633Z" fill="white"/>
<path d="M71.0702 3.93164H67.9505V0.794922H71.0702V3.93164ZM71.0702 22H67.9505V6.29492H71.0702V22Z" fill="white"/>
<path d="M82 22H77.3097V20.4316H75.7498V8.64746H73.41V6.29492H75.7498V1.5791H78.8803V6.29492H82V8.64746H78.8803V18.8633H82V22Z" fill="white"/>
</svg>
