<svg width="106" height="20" viewBox="0 0 106 20" fill="none" xmlns="http://www.w3.org/2000/svg">
<path d="M0 19.5652V1.08696H7.06806C12.8904 1.08696 16.5192 4.59239 16.5192 10.3533C16.5192 16.1141 12.8904 19.5652 7.06806 19.5652H0ZM7.06806 16.0326C10.2365 16.0326 12.078 13.9402 12.078 10.3533C12.078 6.73913 10.2365 4.61957 7.06806 4.61957H4.33291V16.0326H7.06806Z" fill="white"/>
<path d="M24.3806 20C19.9664 20 17.2313 17.0652 17.2313 12.2554C17.2313 7.28261 20.0477 4.4837 24.3806 4.4837C28.7948 4.4837 31.557 7.47283 31.557 12.2554C31.557 17.2011 28.7135 20 24.3806 20ZM24.3806 16.6304C26.3033 16.6304 27.3053 15.1087 27.3053 12.2554C27.3053 9.42935 26.2762 7.85326 24.3806 7.85326C22.4849 7.85326 21.483 9.40217 21.483 12.2554C21.483 15.0815 22.512 16.6304 24.3806 16.6304Z" fill="white"/>
<path d="M39.1463 20C34.7321 20 31.997 17.0652 31.997 12.2554C31.997 7.28261 34.8134 4.4837 39.1463 4.4837C43.5604 4.4837 46.3227 7.47283 46.3227 12.2554C46.3227 17.2011 43.4792 20 39.1463 20ZM39.1463 16.6304C41.069 16.6304 42.071 15.1087 42.071 12.2554C42.071 9.42935 41.0419 7.85326 39.1463 7.85326C37.2506 7.85326 36.2486 9.40217 36.2486 12.2554C36.2486 15.0815 37.2777 16.6304 39.1463 16.6304Z" fill="white"/>
<path d="M51.5289 19.5652H47.3855V0H51.5289V6.44022C52.4225 5.16304 53.6682 4.4837 55.1847 4.4837C58.949 4.4837 61.2779 7.44565 61.2779 12.2283C61.2779 17.2011 58.8948 20 55.1847 20C53.6412 20 52.3954 19.3478 51.5289 18.125V19.5652ZM54.2911 7.85326C52.4767 7.85326 51.5289 9.40217 51.5289 12.2283C51.5289 15.0543 52.5038 16.6304 54.2911 16.6304C56.0784 16.6304 57.0533 15.0815 57.0533 12.2283C57.0533 9.40217 56.0784 7.85326 54.2911 7.85326Z" fill="white"/>
<path d="M66.3984 9.78261H62.2551C62.6884 6.49456 65.2069 4.4837 68.944 4.4837C73.1144 4.4837 75.2809 6.92935 75.2809 10.3261V15.9239C75.2809 17.8261 75.4434 18.8043 75.6871 19.5652H71.4083C71.2729 19.0761 71.1917 18.4511 71.1646 17.7446C70.0272 19.3207 68.2941 20 66.5609 20C63.7987 20 61.7405 18.587 61.7405 15.788C61.7405 13.8043 62.8779 12.2826 65.1798 11.4674C67.0754 10.8424 68.8898 10.6522 71.1375 10.625V10.2989C71.1375 8.69565 70.3522 7.85326 68.7544 7.85326C67.3462 7.85326 66.588 8.6413 66.3984 9.78261ZM65.8839 15.5163C65.8839 16.4946 66.6151 17.1196 67.8337 17.1196C69.6752 17.1196 71.1375 15.625 71.1375 13.6141V13.0435C66.94 13.125 65.8839 14.1576 65.8839 15.5163Z" fill="white"/>
<path d="M77.102 19.5652V4.94565H81.2453V6.875C82.1932 5.24457 83.6826 4.4837 85.4699 4.4837C88.2592 4.4837 90.3445 6.19565 90.3445 9.80978V19.5652H86.2011V10.6522C86.2011 8.80435 85.4699 7.85326 83.9534 7.85326C82.3015 7.85326 81.2453 9.29348 81.2453 11.1685V19.5652H77.102Z" fill="white"/>
<path d="M92.0264 19.5652V0H96.1697V10.8696L100.855 4.94565H105.594L100.178 11.3859L106 19.5652H101.017L96.1697 12.7446V19.5652H92.0264Z" fill="white"/>
</svg>
