<svg width="100" height="20" viewBox="0 0 100 20" fill="none" xmlns="http://www.w3.org/2000/svg">
<path d="M6.31241 19.6699H0V1.23796H6.44964C10.9507 1.23796 13.6952 3.02613 13.6952 6.1348C13.6952 8.39065 12.4876 9.84869 10.539 10.4539C12.6523 10.9491 13.9696 12.2146 13.9696 14.5805C13.9696 18.4044 10.5939 19.6699 6.31241 19.6699ZM2.79942 3.57634V9.326H6.53197C9.60584 9.326 10.8958 8.39065 10.8958 6.32737C10.8958 4.51169 9.30394 3.57634 6.58686 3.57634H2.79942ZM2.79942 11.6644V17.3315H6.44964C8.9746 17.3315 11.1702 16.8363 11.1702 14.3879C11.1702 12.3796 9.68818 11.6644 6.53197 11.6644H2.79942Z" fill="white"/>
<path d="M21.4803 19.9725C17.3909 19.9725 14.3445 17.0014 14.3445 12.8473C14.3445 8.96836 17.1165 5.80468 21.1509 5.80468C25.2128 5.80468 27.7378 8.74828 27.7378 12.5172V13.6176H16.9792C17.2811 15.9285 19.0376 17.5516 21.4528 17.5516C23.0995 17.5516 24.5816 16.8363 25.3775 15.3508L27.4633 16.4237C26.2832 18.7345 24.115 19.9725 21.4803 19.9725ZM17.089 11.8569H25.0207C24.9109 9.71114 23.3465 8.25309 21.1235 8.25309C18.8455 8.25309 17.3635 9.84869 17.089 11.8569Z" fill="white"/>
<path d="M35.007 19.9725C31.9057 19.9725 29.2984 18.5695 28.2006 16.0385L30.5609 14.8831C31.2744 16.4787 32.8388 17.3315 35.007 17.3315C37.1477 17.3315 38.7944 16.3136 38.7944 14.4979C38.7944 12.4622 36.9282 12.1045 34.76 11.6919C31.988 11.1417 28.5574 10.2338 28.5574 6.32737C28.5574 3.27373 31.3293 0.962862 34.8149 0.962862C37.6143 0.962862 40.1118 2.28336 41.2096 4.81431L38.8768 6.02476C38.1358 4.51169 36.736 3.57634 34.7051 3.57634C32.8388 3.57634 31.3293 4.67675 31.3293 6.24484C31.3293 8.22558 33.2779 8.66575 35.501 9.10592C38.2455 9.65612 41.5939 10.564 41.5939 14.4704C41.5939 17.7166 38.7121 19.9725 35.007 19.9725Z" fill="white"/>
<path d="M49.0698 20C45.0079 20 41.8791 16.8088 41.8791 12.9023C41.8791 9.02338 45.0353 5.8597 49.0698 5.8597C53.1317 5.8597 56.2055 9.05089 56.2055 12.9023C56.2055 16.8088 53.1042 20 49.0698 20ZM49.0698 17.414C51.5673 17.414 53.4884 15.3783 53.4884 12.9298C53.4884 10.4539 51.5673 8.41816 49.0698 8.41816C46.5448 8.41816 44.5962 10.4539 44.5962 12.9298C44.5962 15.3783 46.5448 17.414 49.0698 17.414Z" fill="white"/>
<path d="M63.375 17.359C65.8725 17.359 67.2448 15.1857 67.2448 12.6823V6.18982H69.9619V13.0124C69.9619 16.9188 67.6016 20 63.375 20C59.2033 20 56.8431 16.8913 56.8431 12.9849V6.18982H59.5601V12.7098C59.5601 15.1857 60.905 17.359 63.375 17.359Z" fill="white"/>
<path d="M78.1398 8.47318C75.505 8.47318 74.1877 10.6465 74.1877 13.1499V19.6699H71.4706V12.8748C71.4706 8.94085 73.8034 5.8597 78.1398 5.8597C82.531 5.8597 84.9188 8.94085 84.9188 12.8473V19.6699H82.2017V13.1774C82.2017 10.6465 80.8294 8.47318 78.1398 8.47318Z" fill="white"/>
<path d="M92.8368 20C88.7474 20 85.6736 16.8363 85.6736 12.9574C85.6736 8.85832 88.6377 5.8597 92.6996 5.8597C94.511 5.8597 96.1577 6.6575 97.2555 7.86795L97.2829 0H100V12.9574C100 16.9464 96.8987 20 92.8368 20ZM92.8368 17.4415C95.3617 17.4415 97.2829 15.4058 97.2829 12.9298C97.2829 10.4814 95.3617 8.44567 92.8368 8.44567C90.3393 8.44567 88.3907 10.4814 88.3907 12.9298C88.3907 15.4058 90.3393 17.4415 92.8368 17.4415Z" fill="white"/>
</svg>
