<svg width="120" height="32" viewBox="0 0 120 32" fill="none" xmlns="http://www.w3.org/2000/svg">
<path d="M16.0104 32H4.56547V29.7188H2.28274V27.4375H0V13.7188H2.28274V11.4375H4.56547V9.15625H16.0104V11.4375H18.2932V13.7188H20.5759V27.4375H18.2932V29.7188H16.0104V32ZM6.84821 27.4375H13.7121V25.1562H16.0104V16H13.7121V13.7188H6.84821V16H4.56547V25.1562H6.84821V27.4375Z" fill="#F56121"/>
<path d="M29.7068 32H25.1414V9.15625H29.7068V11.4375H31.9896V9.15625H39.9948V11.4375H42.2932V13.7188H44.5759V32H39.9948V16H37.7121V13.7188H31.9896V16H29.7068V32Z" fill="#F56121"/>
<path d="M65.1674 32H53.7225V29.7188H51.4397V27.4375H49.157V13.7188H51.4397V11.4375H53.7225V9.15625H65.1674V11.4375H67.4502V13.7188H69.7329V21.7188H53.7225V25.1562H56.0052V27.4375H62.8691V25.1562H69.7329V27.4375H67.4502V29.7188H65.1674V32ZM53.7225 18.2969H65.1674V16H62.8691V13.7188H56.0052V16H53.7225V18.2969Z" fill="#F56121"/>
<path d="M78.8638 32H74.2984V0H78.8638V11.4375H81.1466V9.15625H90.3088V11.4375H92.5915V13.7188H94.8743V27.4375H92.5915V29.7188H90.3088V32H81.1466V29.7188H78.8638V32ZM81.1466 27.4375H88.0104V25.1562H90.3088V16H88.0104V13.7188H81.1466V16H78.8638V25.1562H81.1466V27.4375Z" fill="#6523D0"/>
<path d="M104.005 5.71875H99.4397V1.15625H104.005V5.71875ZM104.005 32H99.4397V9.15625H104.005V32Z" fill="#6523D0"/>
<path d="M120 32H113.136V29.7188H110.853V12.5781H107.429V9.15625H110.853V2.29688H115.435V9.15625H120V12.5781H115.435V27.4375H120V32Z" fill="#6523D0"/>
</svg>
