<svg width="20" height="20" viewBox="0 0 20 20" fill="none" xmlns="http://www.w3.org/2000/svg">
<path d="M19.5817 5.15493C19.4687 4.72933 19.2459 4.34088 18.9355 4.02849C18.6252 3.71609 18.2382 3.49072 17.8133 3.37493C16.2542 2.9541 10 2.9541 10 2.9541C10 2.9541 3.74583 2.9541 2.18583 3.37493C1.76117 3.49092 1.37441 3.71638 1.06423 4.02875C0.754051 4.34113 0.531326 4.72947 0.418333 5.15493C0 6.72493 0 9.99993 0 9.99993C0 9.99993 0 13.2749 0.418333 14.8449C0.531322 15.2705 0.754146 15.659 1.06449 15.9714C1.37484 16.2838 1.76181 16.5092 2.18667 16.6249C3.74583 17.0458 10 17.0458 10 17.0458C10 17.0458 16.2542 17.0458 17.8142 16.6249C18.2391 16.5092 18.6261 16.2839 18.9364 15.9715C19.2468 15.6591 19.4696 15.2706 19.5825 14.8449C20 13.2749 20 9.99993 20 9.99993C20 9.99993 20 6.72493 19.5817 5.15493ZM7.95417 12.9733V7.0266L13.1817 9.99993L7.95417 12.9733Z" fill="white"/>
</svg>
