<svg width="20" height="20" viewBox="0 0 20 20" fill="none" xmlns="http://www.w3.org/2000/svg">
<g clip-path="url(#clip0_432_876)">
<path d="M17.9525 5.92C17.965 6.09583 17.965 6.2725 17.965 6.45C17.965 11.8725 13.8367 18.125 6.29 18.125V18.1225C4.06019 18.1256 1.87662 17.4868 0 16.2825C1.0743 16.4119 2.16358 16.3284 3.20554 16.0365C4.24751 15.7447 5.22174 15.2503 6.0725 14.5817C5.2162 14.5654 4.38638 14.282 3.69907 13.771C3.01176 13.26 2.50133 12.547 2.23917 11.7317C2.8539 11.8502 3.48763 11.8262 4.09167 11.6617C3.16311 11.474 2.32806 10.9709 1.72811 10.2377C1.12816 9.50459 0.800258 8.5865 0.8 7.63916V7.5875C1.37067 7.90552 2.00948 8.08159 2.6625 8.10083C1.79372 7.52072 1.17868 6.63132 0.942583 5.6137C0.706484 4.59607 0.867076 3.52672 1.39167 2.62333C2.42217 3.89096 3.70776 4.92768 5.16496 5.66618C6.62216 6.40469 8.21838 6.82846 9.85 6.91C9.64675 6.03068 9.73875 5.10891 10.1118 4.28711C10.4848 3.46532 11.1182 2.78927 11.9139 2.36343C12.7096 1.9376 13.6234 1.78568 14.5141 1.93117C15.4048 2.07665 16.2228 2.51144 16.8417 3.16833C17.761 2.98705 18.6426 2.64997 19.4483 2.17166C19.1421 3.12206 18.5009 3.92879 17.6442 4.44166C18.4573 4.34536 19.2514 4.12767 20 3.79583C19.449 4.61981 18.7557 5.3391 17.9525 5.92Z" fill="white"/>
</g>
<defs>
<clipPath id="clip0_432_876">
<rect width="20" height="20" fill="white"/>
</clipPath>
</defs>
</svg>
