<svg width="16" height="16" viewBox="0 0 16 16" fill="none" xmlns="http://www.w3.org/2000/svg">
<path d="M12.6501 2.54414L8.74245 1.10967C8.33748 0.963442 7.67673 0.963442 7.27176 1.10967L3.36414 2.54414C2.61104 2.82268 2.00003 3.68615 2.00003 4.47302V10.1134C2.00003 10.6774 2.37658 11.4225 2.83839 11.7568L6.74601 14.6188C7.43517 15.1271 8.56483 15.1271 9.25399 14.6188L13.1616 11.7568C13.6234 11.4156 14 10.6774 14 10.1134V4.47302C14.0071 3.68615 13.3961 2.82268 12.6501 2.54414ZM10.476 6.44367L7.42096 9.43795C7.31439 9.5424 7.1794 9.59115 7.04441 9.59115C6.90942 9.59115 6.77443 9.5424 6.66786 9.43795L5.5311 8.30987C5.32506 8.10793 5.32506 7.77369 5.5311 7.57175C5.73713 7.36981 6.07816 7.36981 6.2842 7.57175L7.05151 8.3238L9.73001 5.69858C9.93605 5.49664 10.2771 5.49664 10.4831 5.69858C10.6892 5.90052 10.6892 6.24173 10.476 6.44367Z" fill="white"/>
</svg>
