<svg width="16" height="16" viewBox="0 0 16 16" fill="none" xmlns="http://www.w3.org/2000/svg">
<path d="M12.65 2.54414L8.74242 1.10967C8.33745 0.963442 7.6767 0.963442 7.27173 1.10967L3.36411 2.54414C2.61101 2.82268 2 3.68615 2 4.47302V10.1134C2 10.6774 2.37655 11.4225 2.83836 11.7568L6.74598 14.6188C7.43514 15.1271 8.5648 15.1271 9.25396 14.6188L13.1616 11.7568C13.6234 11.4156 13.9999 10.6774 13.9999 10.1134V4.47302C14.007 3.68615 13.396 2.82268 12.65 2.54414ZM8.53638 8.60234V10.4337C8.53638 10.7192 8.29482 10.956 8.00352 10.956C7.71223 10.956 7.47066 10.7192 7.47066 10.4337V8.60234C6.75308 8.37951 6.22733 7.72494 6.22733 6.952C6.22733 5.99105 7.02306 5.21114 8.00352 5.21114C8.98398 5.21114 9.77971 5.99105 9.77971 6.952C9.77971 7.73191 9.25396 8.37951 8.53638 8.60234Z" fill="white"/>
</svg>
