<svg width="16" height="16" viewBox="0 0 16 16" fill="none" xmlns="http://www.w3.org/2000/svg">
<path d="M14.568 4.65595L8.408 8.22395C8.16 8.36795 7.848 8.36795 7.592 8.22395L1.432 4.65595C0.992001 4.39995 0.880001 3.79995 1.216 3.42395C1.448 3.15995 1.712 2.94395 1.992 2.79195L6.328 0.391953C7.256 -0.128047 8.76 -0.128047 9.688 0.391953L14.024 2.79195C14.304 2.94395 14.568 3.16795 14.8 3.42395C15.12 3.79995 15.008 4.39995 14.568 4.65595Z" fill="white"/>
<path d="M7.54402 9.7121V15.1681C7.54402 15.7761 6.92802 16.1761 6.38402 15.9121C4.73602 15.1041 1.96002 13.5921 1.96002 13.5921C0.984021 13.0401 0.184021 11.6481 0.184021 10.5041V6.3761C0.184021 5.7441 0.848021 5.3441 1.39202 5.6561L7.14402 8.9921C7.38402 9.1441 7.54402 9.4161 7.54402 9.7121Z" fill="white"/>
<path d="M8.45599 9.7121V15.1681C8.45599 15.7761 9.07199 16.1761 9.61599 15.9121C11.264 15.1041 14.04 13.5921 14.04 13.5921C15.016 13.0401 15.816 11.6481 15.816 10.5041V6.3761C15.816 5.7441 15.152 5.3441 14.608 5.6561L8.85599 8.9921C8.61599 9.1441 8.45599 9.4161 8.45599 9.7121Z" fill="white"/>
</svg>
