<svg width="16" height="16" viewBox="0 0 16 16" fill="none" xmlns="http://www.w3.org/2000/svg">
<path d="M11.3577 0H4.65032C1.73687 0 0 1.736 0 4.648V11.344C0 14.264 1.73687 16 4.65032 16H11.3497C14.2631 16 16 14.264 16 11.352V4.648C16.008 1.736 14.2711 0 11.3577 0ZM11.5337 6.264C11.0455 7.656 9.73285 8.592 8.26012 8.592C8.25211 8.592 8.25211 8.592 8.24411 8.592L6.59529 8.584C6.59529 8.584 6.59529 8.584 6.58728 8.584C5.97898 8.584 5.45072 8.992 5.29064 9.576C6.00299 9.8 6.52325 10.464 6.52325 11.248C6.52325 12.216 5.73086 13.008 4.76237 13.008C3.79389 13.008 3.0015 12.216 3.0015 11.248C3.0015 10.536 3.43371 9.92 4.04201 9.648V6.16C3.43371 5.92 3.0015 5.328 3.0015 4.64C3.0015 3.736 3.73786 3 4.64231 3C5.54676 3 6.28313 3.736 6.28313 4.64C6.28313 5.336 5.85092 5.92 5.24261 6.16V7.776C5.63481 7.528 6.09904 7.384 6.58728 7.384H6.59529L8.24411 7.392C9.18858 7.424 10.029 6.816 10.3652 5.936C9.97297 5.632 9.71684 5.168 9.71684 4.64C9.71684 3.736 10.4532 3 11.3577 3C12.2621 3 12.9985 3.736 12.9985 4.64C13.0065 5.488 12.3582 6.176 11.5337 6.264Z" fill="white"/>
</svg>
