<svg width="16" height="16" viewBox="0 0 16 16" fill="none" xmlns="http://www.w3.org/2000/svg">
<path d="M11.352 0H4.648C1.736 0 0 1.736 0 4.648V11.344C0 14.264 1.736 16 4.648 16H11.344C14.256 16 15.992 14.264 15.992 11.352V4.648C16 1.736 14.264 0 11.352 0ZM11.36 13C10.456 13 9.72 12.264 9.72 11.36C9.72 10.832 9.976 10.368 10.368 10.064C10.032 9.184 9.192 8.576 8.248 8.608L6.6 8.616H6.592C6.104 8.616 5.64 8.472 5.248 8.224V9.84C5.856 10.08 6.288 10.672 6.288 11.36C6.288 12.264 5.552 13 4.648 13C3.744 13 3.008 12.264 3.008 11.36C3.008 10.664 3.44 10.08 4.048 9.84V6.36C3.44 6.08 3.008 5.472 3.008 4.76C3.008 3.792 3.8 3 4.768 3C5.736 3 6.528 3.792 6.528 4.76C6.528 5.544 6.008 6.2 5.296 6.432C5.456 7.016 5.984 7.424 6.592 7.424C6.592 7.424 6.592 7.424 6.6 7.424L8.248 7.416C8.256 7.416 8.256 7.416 8.264 7.416C9.736 7.416 11.056 8.352 11.536 9.744C12.36 9.832 13.008 10.52 13.008 11.368C13 12.264 12.264 13 11.36 13Z" fill="white"/>
</svg>
