<svg width="16" height="16" viewBox="0 0 16 16" fill="none" xmlns="http://www.w3.org/2000/svg">
<path d="M16 4.648V8.4H12.736C12.64 8.392 12.432 8.272 12.384 8.184L11.552 6.608C11.224 5.984 10.656 5.632 10.048 5.664C9.43997 5.696 8.91997 6.104 8.65597 6.768L7.55197 9.536L7.39197 9.12C6.99997 8.104 5.87997 7.336 4.77597 7.336L-3.05176e-05 7.36V4.648C-3.05176e-05 1.736 1.73597 0 4.64797 0H11.352C14.264 0 16 1.736 16 4.648Z" fill="white"/>
<path d="M16 11.352V9.59997H12.736C12.2 9.59997 11.568 9.21597 11.32 8.74397L10.488 7.16797C10.264 6.74397 9.94397 6.76797 9.76797 7.20797L7.92797 11.856C7.72797 12.376 7.39197 12.376 7.18397 11.856L6.27197 9.55197C6.05597 8.99197 5.38397 8.53597 4.78397 8.53597L-3.05176e-05 8.55997V11.352C-3.05176e-05 14.216 1.67997 15.944 4.50397 15.992C4.59197 16 4.68797 16 4.77597 16H11.176C11.296 16 11.416 16 11.528 15.992C14.336 15.928 16 14.208 16 11.352Z" fill="white"/>
</svg>
