<svg width="16" height="16" viewBox="0 0 16 16" fill="none" xmlns="http://www.w3.org/2000/svg">
<path d="M15.4 8.6C15.736 8.6 16 8.328 16 8C16 7.664 15.736 7.4 15.4 7.4H14.4V5.64H15.4C15.736 5.64 16 5.376 16 5.04C16 4.712 15.736 4.44 15.4 4.44H14.216C13.832 3.168 12.832 2.168 11.56 1.784V0.6C11.56 0.272 11.288 0 10.96 0C10.632 0 10.36 0.272 10.36 0.6V1.6H8.6V0.6C8.6 0.272 8.328 0 8 0C7.672 0 7.4 0.272 7.4 0.6V1.6H5.648V0.6C5.648 0.272 5.376 0 5.048 0C4.712 0 4.448 0.272 4.448 0.6V1.784C3.168 2.168 2.168 3.168 1.784 4.44H0.6C0.272 4.44 0 4.712 0 5.04C0 5.376 0.272 5.64 0.6 5.64H1.6V7.4H0.6C0.272 7.4 0 7.664 0 8C0 8.328 0.272 8.6 0.6 8.6H1.6V10.36H0.6C0.272 10.36 0 10.624 0 10.96C0 11.288 0.272 11.56 0.6 11.56H1.784C2.16 12.832 3.168 13.832 4.448 14.216V15.4C4.448 15.728 4.712 16 5.048 16C5.376 16 5.648 15.728 5.648 15.4V14.4H7.408V15.4C7.408 15.728 7.672 16 8.008 16C8.336 16 8.608 15.728 8.608 15.4V14.4H10.36V15.4C10.36 15.728 10.632 16 10.96 16C11.288 16 11.56 15.728 11.56 15.4V14.216C12.832 13.832 13.832 12.832 14.216 11.56H15.4C15.736 11.56 16 11.288 16 10.96C16 10.624 15.736 10.36 15.4 10.36H14.4V8.6H15.4ZM12.208 9.808C12.208 11.128 11.128 12.208 9.808 12.208H6.192C4.872 12.208 3.792 11.128 3.792 9.808V6.192C3.792 4.872 4.872 3.792 6.192 3.792H9.808C11.128 3.792 12.208 4.872 12.208 6.192V9.808Z" fill="white"/>
<path d="M6.41628 11.4003H9.59228C10.5923 11.4003 11.4083 10.5923 11.4083 9.58429V6.40829C11.4083 5.40829 10.6003 4.59229 9.59228 4.59229H6.41628C5.41628 4.59229 4.60028 5.40029 4.60028 6.40829V9.58429C4.60028 10.5923 5.40828 11.4003 6.41628 11.4003Z" fill="white"/>
</svg>
