<svg width="16" height="16" viewBox="0 0 16 16" fill="none" xmlns="http://www.w3.org/2000/svg">
<path d="M11.352 0H4.648C1.736 0 0 1.736 0 4.648V11.344C0 14.264 1.736 16 4.648 16H11.344C14.256 16 15.992 14.264 15.992 11.352V4.648C16 1.736 14.264 0 11.352 0ZM4.504 12.92C4.504 13.248 4.232 13.52 3.904 13.52C3.576 13.52 3.304 13.248 3.304 12.92V11.264C3.304 10.936 3.576 10.664 3.904 10.664C4.232 10.664 4.504 10.936 4.504 11.264V12.92ZM8.6 12.92C8.6 13.248 8.328 13.52 8 13.52C7.672 13.52 7.4 13.248 7.4 12.92V9.6C7.4 9.272 7.672 9 8 9C8.328 9 8.6 9.272 8.6 9.6V12.92ZM12.696 12.92C12.696 13.248 12.424 13.52 12.096 13.52C11.768 13.52 11.496 13.248 11.496 12.92V7.944C11.496 7.616 11.768 7.344 12.096 7.344C12.424 7.344 12.696 7.616 12.696 7.944V12.92ZM12.696 5.416C12.696 5.744 12.424 6.016 12.096 6.016C11.768 6.016 11.496 5.744 11.496 5.416V4.64C9.456 6.736 6.904 8.216 4.048 8.928C4 8.944 3.952 8.944 3.904 8.944C3.632 8.944 3.392 8.76 3.32 8.488C3.24 8.168 3.432 7.84 3.76 7.76C6.456 7.088 8.856 5.672 10.76 3.672H9.76C9.432 3.672 9.16 3.4 9.16 3.072C9.16 2.744 9.432 2.472 9.76 2.472H12.104C12.136 2.472 12.16 2.488 12.192 2.488C12.232 2.496 12.272 2.496 12.312 2.512C12.352 2.528 12.384 2.552 12.424 2.576C12.448 2.592 12.472 2.6 12.496 2.616C12.504 2.624 12.504 2.632 12.512 2.632C12.544 2.664 12.568 2.696 12.592 2.728C12.616 2.76 12.64 2.784 12.648 2.816C12.664 2.848 12.664 2.88 12.672 2.92C12.68 2.96 12.696 3 12.696 3.048C12.696 3.056 12.704 3.064 12.704 3.072V5.416H12.696Z" fill="white"/>
</svg>
