<svg width="16" height="16" viewBox="0 0 16 16" fill="none" xmlns="http://www.w3.org/2000/svg">
<path d="M8.00003 0C3.59203 0 3.05176e-05 3.592 3.05176e-05 8C3.05176e-05 12.408 3.59203 16 8.00003 16C12.408 16 16 12.408 16 8C16 3.592 12.408 0 8.00003 0ZM11.48 10.856C11.368 11.048 11.168 11.152 10.96 11.152C10.856 11.152 10.752 11.128 10.656 11.064L8.17603 9.584C7.56003 9.216 7.10403 8.408 7.10403 7.696V4.416C7.10403 4.088 7.37603 3.816 7.70403 3.816C8.03203 3.816 8.30403 4.088 8.30403 4.416V7.696C8.30403 7.984 8.54403 8.408 8.79203 8.552L11.272 10.032C11.56 10.2 11.656 10.568 11.48 10.856Z" fill="white"/>
</svg>
