<svg width="103" height="28" viewBox="0 0 103 28" fill="none" xmlns="http://www.w3.org/2000/svg">
<path d="M35.42 20H33.674V9.452C33.674 8.354 34.394 7.724 35.312 7.724C36.05 7.724 36.554 8.012 36.896 8.642L41.972 18.128C42.026 18.29 42.062 18.362 42.17 18.362C42.242 18.362 42.26 18.326 42.26 18.218V7.94H44.006V18.506C44.006 19.604 43.232 20.216 42.404 20.216C41.72 20.216 41.126 19.928 40.784 19.28L35.726 9.776C35.69 9.632 35.654 9.56 35.564 9.56C35.456 9.56 35.42 9.632 35.42 9.776V20ZM49.8238 20.216C47.2678 20.216 45.3958 18.128 45.3958 15.572C45.3958 13.052 47.4118 10.964 50.0938 10.964C52.7578 10.964 54.7918 12.944 54.7918 15.572V20H53.0998V18.452C52.4338 19.532 51.2638 20.216 49.8238 20.216ZM50.0938 18.524C51.7498 18.524 53.0098 17.192 53.0098 15.59C53.0098 13.97 51.7498 12.638 50.0938 12.638C48.4558 12.638 47.1778 13.97 47.1778 15.59C47.1778 17.192 48.4558 18.524 50.0938 18.524ZM60.7184 12.674C58.9904 12.674 58.1264 14.096 58.1264 15.734V20H56.3444V15.554C56.3444 12.98 57.8744 10.964 60.7184 10.964C63.5984 10.964 65.1644 12.98 65.1644 15.536V20H63.3824V15.752C63.3824 14.096 62.4824 12.674 60.7184 12.674ZM70.8755 20.216C68.2115 20.216 66.1595 18.128 66.1595 15.572C66.1595 13.034 68.2295 10.964 70.8755 10.964C73.5395 10.964 75.5555 13.052 75.5555 15.572C75.5555 18.128 73.5215 20.216 70.8755 20.216ZM70.8755 18.524C72.5135 18.524 73.7735 17.192 73.7735 15.59C73.7735 13.97 72.5135 12.638 70.8755 12.638C69.2195 12.638 67.9415 13.97 67.9415 15.59C67.9415 17.192 69.2195 18.524 70.8755 18.524ZM78.9216 20H77.0856V7.94H80.9196C84.1596 7.94 86.2656 9.398 86.2656 12.206C86.2656 15.086 84.1236 16.526 81.0096 16.526H78.9216V20ZM80.9736 9.632H78.9216V14.816H80.9736C82.9536 14.816 84.3756 14.042 84.3756 12.206C84.3756 10.442 83.0076 9.632 80.9736 9.632ZM88.894 20H87.112V14.744C87.112 12.602 88.336 11 90.64 11C91.198 11 91.774 11.108 92.224 11.324V13.088C91.792 12.836 91.288 12.71 90.802 12.71C89.614 12.71 88.894 13.52 88.894 14.816V20ZM96.686 20.216C94.022 20.216 91.97 18.128 91.97 15.572C91.97 13.034 94.04 10.964 96.686 10.964C99.35 10.964 101.366 13.052 101.366 15.572C101.366 18.128 99.332 20.216 96.686 20.216ZM96.686 18.524C98.324 18.524 99.584 17.192 99.584 15.59C99.584 13.97 98.324 12.638 96.686 12.638C95.03 12.638 93.752 13.97 93.752 15.59C93.752 17.192 95.03 18.524 96.686 18.524Z" fill="white"/>
<rect width="28" height="28" rx="8" fill="white"/>
<rect x="6" y="16" width="4" height="16" rx="2" transform="rotate(-90 6 16)" fill="#00041B"/>
<rect x="8.66667" y="22" width="4" height="10.6667" rx="2" transform="rotate(-90 8.66667 22)" fill="#00041B"/>
<rect x="8.66667" y="10" width="4" height="10.6667" rx="2" transform="rotate(-90 8.66667 10)" fill="#00041B"/>
</svg>
